<svg xmlns="http://www.w3.org/2000/svg" fill="none" viewBox="0 0 24 24" id="Menu-Fill--Streamline-Rounded-Fill-Material" height="24" width="24">
  <desc>
    Menu Fill Streamline Icon: https://streamlinehq.com
  </desc>
  <path fill="#000000" d="M3.75 18c-0.2125 0 -0.390585 -0.07235 -0.53425 -0.217C3.071915 17.6385 3 17.45935 3 17.2455c0 -0.21365 0.071915 -0.39135 0.21575 -0.533C3.359415 16.57085 3.5375 16.5 3.75 16.5h16.5c0.2125 0 0.39065 0.07235 0.5345 0.217 0.14365 0.1445 0.2155 0.32365 0.2155 0.5375 0 0.21365 -0.07185 0.39135 -0.2155 0.533 -0.14385 0.14165 -0.322 0.2125 -0.5345 0.2125h-16.5Zm0 -5.25c-0.2125 0 -0.390585 -0.07235 -0.53425 -0.217C3.071915 12.3885 3 12.20935 3 11.9955c0 -0.21365 0.071915 -0.39135 0.21575 -0.533 0.143665 -0.14165 0.32175 -0.2125 0.53425 -0.2125h16.5c0.2125 0 0.39065 0.07235 0.5345 0.217 0.14365 0.1445 0.2155 0.32365 0.2155 0.5375 0 0.21365 -0.07185 0.39135 -0.2155 0.533 -0.14385 0.14165 -0.322 0.2125 -0.5345 0.2125h-16.5Zm0 -5.25c-0.2125 0 -0.390585 -0.07235 -0.53425 -0.217C3.071915 7.1385 3 6.95935 3 6.7455c0 -0.21365 0.071915 -0.39135 0.21575 -0.533C3.359415 6.07085 3.5375 6 3.75 6h16.5c0.2125 0 0.39065 0.07235 0.5345 0.217 0.14365 0.1445 0.2155 0.32365 0.2155 0.5375 0 0.21365 -0.07185 0.39135 -0.2155 0.533 -0.14385 0.14165 -0.322 0.2125 -0.5345 0.2125h-16.5Z" stroke-width="0.5"></path>
</svg>