<svg xmlns="http://www.w3.org/2000/svg" fill="none" viewBox="0 0 24 24" id="Table-Eye--Streamline-Sharp-Material" height="24" width="24">
  <desc>
    Table Eye Streamline Icon: https://streamlinehq.com
  </desc>
  <path fill="#000000" d="M3 21V3h18v11.3c-0.24015 -0.15165 -0.4836 -0.2896 -0.73025 -0.41375 -0.2465 -0.12415 -0.5031 -0.23625 -0.76975 -0.33625V10h-4v3.025c-0.26665 0.03335 -0.52435 0.063 -0.773 0.089 -0.2485 0.02585 -0.49085 0.07115 -0.727 0.136V10h-4v5.5H4.5v4h3.775c0.13335 0.28335 0.275 0.54585 0.425 0.7875 0.15 0.24165 0.31665 0.47915 0.5 0.7125H3Zm1.5 -7h4v-4H4.5v4Zm0 -5.5h15V4.5H4.5v4Zm11.76875 14.5c-1.4625 0 -2.8021 -0.375 -4.01875 -1.125s-2.11665 -1.79165 -2.7 -3.125c0.58335 -1.33335 1.48335 -2.375 2.7 -3.125 1.21665 -0.75 2.55835 -1.125 4.025 -1.125 1.46665 0 2.80835 0.375 4.025 1.125 1.21665 0.75 2.11665 1.79585 2.7 3.1375 -0.55 1.34165 -1.44375 2.38335 -2.68125 3.125 -1.2375 0.74165 -2.5875 1.1125 -4.05 1.1125Zm0.00625 -1.5c1.03335 0 1.99165 -0.24585 2.875 -0.7375 0.88335 -0.49165 1.60835 -1.1625 2.175 -2.0125 -0.56665 -0.85 -1.29165 -1.52085 -2.175 -2.0125C18.26665 16.24585 17.30835 16 16.275 16s-1.99165 0.24585 -2.875 0.7375c-0.88335 0.49165 -1.60835 1.1625 -2.175 2.0125 0.56665 0.85 1.29165 1.52085 2.175 2.0125 0.88335 0.49165 1.84165 0.7375 2.875 0.7375Zm-0.003 -1.5c-0.348 0 -0.64285 -0.12185 -0.8845 -0.3655 -0.24165 -0.24365 -0.3625 -0.5395 -0.3625 -0.8875s0.12185 -0.64285 0.3655 -0.8845c0.24365 -0.24165 0.5395 -0.3625 0.8875 -0.3625s0.64285 0.12185 0.8845 0.3655c0.24165 0.24365 0.3625 0.5395 0.3625 0.8875s-0.12185 0.64285 -0.3655 0.8845c-0.24365 0.24165 -0.5395 0.3625 -0.8875 0.3625Z" stroke-width="0.5"></path>
</svg>