<svg xmlns="http://www.w3.org/2000/svg" fill="none" viewBox="0 0 24 24" id="Tonality--Streamline-Outlined-Material" height="24" width="24">
  <desc>
    Tonality Streamline Icon: https://streamlinehq.com
  </desc>
  <path fill="#000000" d="M12 22c-1.38335 0 -2.68335 -0.2625 -3.9 -0.7875 -1.21665 -0.525 -2.275 -1.2375 -3.175 -2.1375 -0.9 -0.9 -1.6125 -1.95835 -2.1375 -3.175C2.2625 14.68335 2 13.38335 2 12s0.2625 -2.68335 0.7875 -3.9c0.525 -1.21665 1.2375 -2.275 2.1375 -3.175 0.9 -0.9 1.95835 -1.6125 3.175 -2.1375C9.31665 2.2625 10.61665 2 12 2s2.68335 0.2625 3.9 0.7875c1.21665 0.525 2.275 1.2375 3.175 2.1375 0.9 0.9 1.6125 1.95835 2.1375 3.175C21.7375 9.31665 22 10.61665 22 12s-0.2625 2.68335 -0.7875 3.9c-0.525 1.21665 -1.2375 2.275 -2.1375 3.175 -0.9 0.9 -1.95835 1.6125 -3.175 2.1375C14.68335 21.7375 13.38335 22 12 22Zm-0.75 -1.525V3.525c-2.2 0.233335 -4.04165 1.154165 -5.525 2.7625C4.241665 7.89585 3.5 9.8 3.5 12s0.741665 4.1 2.225 5.7c1.48335 1.6 3.325 2.525 5.525 2.775Zm1.5 0c0.63335 -0.06665 1.25 -0.2 1.85 -0.4 0.6 -0.2 1.18335 -0.45835 1.75 -0.775h-3.6v1.175Zm0 -2.675h5.475c0.23335 -0.28335 0.4625 -0.56665 0.6875 -0.85 0.225 -0.28335 0.42915 -0.59165 0.6125 -0.925H12.75v1.775Zm0 -3.275h7.35c0.13335 -0.28335 0.21665 -0.575 0.25 -0.875 0.03335 -0.3 0.05835 -0.6 0.075 -0.9H12.75v1.775Zm0 -3.275h7.675c-0.01665 -0.3 -0.04165 -0.6 -0.075 -0.9 -0.03335 -0.3 -0.11665 -0.59165 -0.25 -0.875H12.75v1.775Zm0 -3.275h6.775c-0.16665 -0.33335 -0.36665 -0.64165 -0.6 -0.925l-0.7 -0.85H12.75v1.775Zm0 -3.275h3.6c-0.56665 -0.316665 -1.15 -0.579165 -1.75 -0.7875 -0.6 -0.208335 -1.21665 -0.3375 -1.85 -0.3875V4.7Z" stroke-width="0.5"></path>
</svg>
