<svg xmlns="http://www.w3.org/2000/svg" fill="none" viewBox="0 0 24 24" height="24" width="24">
  <g id="View-Carousel">
    <path id="Union" fill="#000000" d="M17.1025 3.00488C17.6067 3.05621 18 3.48232 18 4v16c0 0.5523 -0.4477 1 -1 1H7c-0.55228 0 -1 -0.4477 -1 -1V4l0.00488 -0.10254C6.05621 3.39333 6.48232 3 7 3h10zM8 19h8V5H8zm-4 -1H3c-0.55228 0 -1 -0.4477 -1 -1V7l0.00488 -0.10254C2.05621 6.39333 2.48232 6 3 6h1zM21.1025 6.00488C21.6067 6.05621 22 6.48232 22 7v10c0 0.5523 -0.4477 1 -1 1h-1V6h1z" stroke-width="1"></path>
  </g>
</svg>